<svg xmlns="http://www.w3.org/2000/svg" version="1.1" xmlns:xlink="http://www.w3.org/1999/xlink" viewBox="0 0 700 700" style="overflow: hidden; display: block;" width="700" height="700"><defs><linearGradient id="two-31" x1="350" y1="-350" x2="350" y2="350" spreadMethod="pad" gradientUnits="userSpaceOnUse"><stop offset="0%" stop-color="hsl(162, 100%, 58%)" stop-opacity="1"></stop><stop offset="100%" stop-color="hsl(270, 73%, 53%)" stop-opacity="1"></stop></linearGradient></defs><g id="two-0" transform="matrix(1 0 0 1 0 0)" opacity="1"><path transform="matrix(1 0 0 1 350 350)" id="two-237" d="M 196.944959 57.828257 C 187.585425 96.352779 267.969746 126.205763 254.26733 163.407691 C 243.941659 191.441787 189.943887 173.893283 169.783924 195.941094 C 144.730321 223.340803 163.598029 276.412349 138.888003 304.122306 C 117.537925 328.064399 81.04869 338.743216 49.072456 341.306429 C 16.98768 343.878341 -20.353218 338.486458 -45.840597 318.828354 C -75.696578 295.800802 -65.08365 233.272012 -99.548949 217.981791 C -135.074631 202.221139 -176.972056 259.215921 -213.766167 246.699307 C -242.635012 236.878707 -260.960949 202.969972 -271.052017 174.194553 C -281.365876 144.783828 -268.675581 110.779922 -271.608631 79.751489 C -274.127246 53.107326 -279.802312 25.953282 -286.335458 0 C -294.188916 -31.198297 -318.195171 -60.719304 -316.131686 -92.824638 C -314.149639 -123.662883 -302.384179 -160.96744 -276.332856 -177.588343 C -242.383227 -199.248413 -194.542419 -179.614377 -154.301145 -178.073014 C -129.2338 -177.112859 -98.76784 -157.133811 -78.530209 -171.957171 C -39.187531 -200.774312 -89.005544 -294.08402 -45.431548 -315.983355 C -17.91054 -329.814811 14.624407 -295.880678 40.039323 -278.479612 C 63.090454 -262.69698 82.359728 -240.340665 99.789387 -218.508279 C 114.343018 -200.278403 116.505343 -168.784121 137.570991 -158.765388 C 177.939598 -139.566252 240.638034 -206.632719 272.071976 -174.850043 C 295.183731 -151.481881 256.489349 -108.853356 259.155443 -76.094904 C 261.282766 -49.956357 290.833395 -24.716734 282.067995 -0.000001 C 270.717379 32.006541 204.962231 24.828582 196.944959 57.828257 Z " fill="url(#two-31)" stroke="undefined" stroke-width="1" stroke-opacity="1" fill-opacity="1" visibility="visible" stroke-linecap="butt" stroke-linejoin="miter" stroke-miterlimit="4"></path></g></svg>