<svg id="katman_1" data-name="katman 1" xmlns="http://www.w3.org/2000/svg" viewBox="0 0 200 51.26">
  <defs>
    <style>
      .cls-1 {
        font-size: 37.92px;
        fill: #eee;
        font-family: 'montserrat-extra-bold';
      }
      .cls-2 {
        fill: #1d1d1b;
      }
      .cls-3 {
        fill: #fff;
      }
      .cls-4 {
        font-size: 37.92px;
        fill: #54bec3;
        font-family: 'montserrat-extra-bold';
      }
    </style>
  </defs>
  <text class="cls-1" transform="translate(48.87 36.82)">appiz<tspan class="cls-4">soft</tspan></text>
  <path class="cls-2" d="M44,7.87c-.05-.68-.83-.94-.83-.94S24.46,1.3,23.16.84a2.49,2.49,0,0,0-2,0S1.43,6.82.82,7A1.18,1.18,0,0,0,0,7.58V33C4.82,47,22.25,51.26,22.25,51.26,42,43.86,44,32.64,44,32.64S44.07,8.55,44,7.87ZM42.2,32.44c-.3,1.13-3.19,10.43-20,16.9-2.82-.82-16.23-5.27-20.33-16.7V8.56c2.89-.83,14.52-4.36,19.83-6l.28-.11h.12a1.57,1.57,0,0,1,.5.1c1.22.42,16.67,5.07,19.65,6C42.23,11.35,42.21,23.83,42.2,32.44Z"/>
  <path class="cls-2" d="M22.94,23.66s0-16.51,0-17.8S21.35,5,21.35,5,5.8,9.77,5,10.13s-.84.49-.84.49V25.23c0,.63.69.68.69.68H20.85V46.49C33,45.09,39.76,32.76,39.76,32.76v-9.1ZM21,23.8H6.17V12.29L21,7.44Zm16.68,7.43s-.69,7-14.53,12.91L23,26H37.69Z"/>
 <path class="cls-3" d="M44.11,7.23c0-.68-.82-1-.82-1S24.54.65,23.25.2a2.51,2.51,0,0,0-2,0S1.51,6.18.91,6.31a1.18,1.18,0,0,0-.83.63V32.31C4.91,46.4,22.34,50.62,22.34,50.62,42.12,43.22,44.11,32,44.11,32S44.15,7.91,44.11,7.23ZM42.28,31.79c-.29,1.14-3.19,10.44-20,16.91C19.43,47.88,6,43.43,1.91,32V7.92C4.8,7.09,16.44,3.56,21.74,2L22,1.84h.12a1.57,1.57,0,0,1,.5.09c1.21.43,16.67,5.08,19.64,6C42.31,10.71,42.3,23.18,42.28,31.79Z"/>
  <path class="cls-3" d="M23,23s0-16.51,0-17.8-1.58-.83-1.58-.83S5.88,9.13,5,9.48s-.83.5-.83.5v14.6c0,.64.68.68.68.68H20.94V45.85c12.11-1.4,18.91-13.73,18.91-13.73V23Zm-1.93.14H6.25V11.65L21.09,6.8Zm16.69,7.43s-.7,7-14.54,12.9l-.18-18.18H37.78Z"/>
</svg>