<svg id="katman_1" data-name="katman 1" xmlns="http://www.w3.org/2000/svg" viewBox="0 0 462.29 101.86"><defs><style>.cls-1{fill:#54bec3;}</style></defs><path class="cls-1" d="M0,57.7q0-6.83,6.48-8.13l23.31-4.71a2.22,2.22,0,0,0,1.65-1.11,3.5,3.5,0,0,0,.47-1.59v-.83A2,2,0,0,0,31.44,40,1.68,1.68,0,0,0,30,39.45H18.37A1.7,1.7,0,0,0,17,40a1.85,1.85,0,0,0-.53,1.29v2.83H1.18V38a13.19,13.19,0,0,1,1.06-5.29,13.64,13.64,0,0,1,2.94-4.36,13.83,13.83,0,0,1,4.36-2.95,13.41,13.41,0,0,1,5.3-1.05H34.5a13.41,13.41,0,0,1,5.3,1.05,13.83,13.83,0,0,1,7.3,7.31A13.19,13.19,0,0,1,48.16,38v37.1H33.09l-.71-2a11.36,11.36,0,0,1-8,3.18H13.66a13.45,13.45,0,0,1-5.3-1.06,13.83,13.83,0,0,1-7.3-7.31A13.19,13.19,0,0,1,0,62.65Zm17.43-1.53a2.13,2.13,0,0,0-1.89,2.35v.83A2,2,0,0,0,16,60.64a1.7,1.7,0,0,0,1.42.59H30a1.7,1.7,0,0,0,1.35-.59,1.9,1.9,0,0,0,.53-1.29V52.87Z"/><path class="cls-1" d="M61.11,25.55H76.66l.7,2.36a10.35,10.35,0,0,1,3.36-2.59,9.68,9.68,0,0,1,4.3-.94H98.21a13.18,13.18,0,0,1,5.35,1.11,14.27,14.27,0,0,1,4.36,3,13.62,13.62,0,0,1,2.89,4.3,13.36,13.36,0,0,1,1,5.29V62.65a13.36,13.36,0,0,1-1,5.29,14.24,14.24,0,0,1-2.89,4.36,13,13,0,0,1-4.36,3,13.84,13.84,0,0,1-5.35,1.06H85.49a9.86,9.86,0,0,1-7.66-3.42v27.79H61.11ZM77.83,60.17a1.85,1.85,0,0,0,.48,1.18,1.69,1.69,0,0,0,1.41.59H93.38a1.71,1.71,0,0,0,1.41-.59,1.89,1.89,0,0,0,.47-1.18V41.8a2,2,0,0,0-.47-1.29,1.71,1.71,0,0,0-1.41-.59H79.72a1.69,1.69,0,0,0-1.41.59,2,2,0,0,0-.48,1.29Z"/><path class="cls-1" d="M124.82,25.55h15.54l.71,2.36a10.31,10.31,0,0,1,3.35-2.59,9.72,9.72,0,0,1,4.3-.94h13.19a13.23,13.23,0,0,1,5.36,1.11,14.35,14.35,0,0,1,4.35,3,13.62,13.62,0,0,1,2.89,4.3A13.36,13.36,0,0,1,175.57,38V62.65a13.36,13.36,0,0,1-1.06,5.29,14.24,14.24,0,0,1-2.89,4.36,13,13,0,0,1-4.35,3,13.89,13.89,0,0,1-5.36,1.06H149.19a9.84,9.84,0,0,1-7.65-3.42v27.79H124.82Zm16.72,34.62a1.84,1.84,0,0,0,.47,1.18,1.69,1.69,0,0,0,1.41.59h13.66a1.69,1.69,0,0,0,1.41-.59,1.84,1.84,0,0,0,.47-1.18V41.8a2,2,0,0,0-.47-1.29,1.69,1.69,0,0,0-1.41-.59H143.42a1.69,1.69,0,0,0-1.41.59,2,2,0,0,0-.47,1.29Z"/><path class="cls-1" d="M206.42,17.43H189.7V8.24h16.72Zm0,57.7H189.7V25.55h16.72Z"/><path class="cls-1" d="M217,69l18.26-29H217V25.55h43.1v6.36L242.45,59.58h17.66V75.13H217Z"/><path class="cls-1" d="M315.1,62.65A13.19,13.19,0,0,1,314,67.94a13.83,13.83,0,0,1-7.3,7.31,13.41,13.41,0,0,1-5.3,1.06H282a13.45,13.45,0,0,1-5.3-1.06,13.93,13.93,0,0,1-7.3-7.31,13.36,13.36,0,0,1-1.06-5.29V56.52h15.31v2.83a1.9,1.9,0,0,0,.53,1.29,1.72,1.72,0,0,0,1.35.59h11.54a1.56,1.56,0,0,0,1.42-.76A2.85,2.85,0,0,0,299,59v-.71c0-1-.71-1.73-2.12-2.12l-20.73-4.24a9,9,0,0,1-5.77-3.36,10.33,10.33,0,0,1-2-6.41V38a13.36,13.36,0,0,1,1.06-5.29,13.83,13.83,0,0,1,2.95-4.36,13.67,13.67,0,0,1,4.35-2.95,13.44,13.44,0,0,1,5.3-1.05h19.43a13.41,13.41,0,0,1,5.3,1.05,13.83,13.83,0,0,1,4.36,2.95A14,14,0,0,1,314,32.74,13.19,13.19,0,0,1,315.1,38v6.13H299.79V41.33a1.85,1.85,0,0,0-.53-1.29,1.7,1.7,0,0,0-1.35-.59H286.37A1.67,1.67,0,0,0,285,40a2,2,0,0,0-.47,1.29v1.06a1.93,1.93,0,0,0,.52,1.3,3,3,0,0,0,1.59.82l20.73,4.24a9.59,9.59,0,0,1,5.77,3.42,10.08,10.08,0,0,1,2,6.35Z"/><path class="cls-1" d="M376.69,62.65a13.36,13.36,0,0,1-1.06,5.29,14.24,14.24,0,0,1-2.89,4.36,13,13,0,0,1-4.36,3A13.8,13.8,0,0,1,363,76.31H340.54a13.38,13.38,0,0,1-5.3-1.06,13.72,13.72,0,0,1-4.36-3,13.53,13.53,0,0,1-2.94-4.36,13.19,13.19,0,0,1-1.06-5.29V38a13.19,13.19,0,0,1,1.06-5.29,13,13,0,0,1,2.94-4.3,15.17,15.17,0,0,1,4.36-3,12.75,12.75,0,0,1,5.3-1.11H363a13.15,13.15,0,0,1,5.35,1.11,14.27,14.27,0,0,1,4.36,3,13.62,13.62,0,0,1,2.89,4.3A13.36,13.36,0,0,1,376.69,38Zm-15.9-21.32a2,2,0,0,0-.47-1.29,1.69,1.69,0,0,0-1.41-.59H344.77a1.68,1.68,0,0,0-1.41.59,2,2,0,0,0-.47,1.29V59.47a1.89,1.89,0,0,0,.47,1.17,1.68,1.68,0,0,0,1.41.59h14.14a1.69,1.69,0,0,0,1.41-.59,1.89,1.89,0,0,0,.47-1.17Z"/><path class="cls-1" d="M384.34,39V25.55h8.83V13.66a13.27,13.27,0,0,1,1.06-5.3,13.77,13.77,0,0,1,7.3-7.3A13.27,13.27,0,0,1,406.83,0h16.49V14.48H411.78a1.72,1.72,0,0,0-1.42.59,1.94,1.94,0,0,0-.47,1.18v9.3h12.25V39H409.89V88.2a13.27,13.27,0,0,1-1.06,5.3,13.86,13.86,0,0,1-7.3,7.3,13.41,13.41,0,0,1-5.3,1.06H384.57V87.37h6.72a1.69,1.69,0,0,0,1.41-.59,1.89,1.89,0,0,0,.47-1.17V39Z"/><path class="cls-1" d="M423.31,25.55h8.84L434,11.66h14.84V25.55h12V39h-12V57.82a1.88,1.88,0,0,0,.47,1.18,1.69,1.69,0,0,0,1.41.58h11.54V75.13H445.8a13.4,13.4,0,0,1-5.29-1.06,13.72,13.72,0,0,1-4.36-2.95,13.49,13.49,0,0,1-2.94-4.35,13.27,13.27,0,0,1-1.06-5.3V39h-8.84Z"/></svg>