<svg
  id="katman_1"
  data-name="katman 1"
  xmlns="http://www.w3.org/2000/svg"
  viewBox="0 0 841.89 595.28"
>
    <defs>
        <style>
 .cls-1{
    font-size:117.75px;
    fill:#54bec3;
    font-family:BourgeoisTRUUlt;
    }
 .cls-2{
    fill:#1d1d1b;
    }
 .cls-3
 {
    fill:#fff;
    }
 </style>
    </defs>
    <text class="cls-1" transform="translate(262.74 304.35)">
 appizsoft
 </text>
    <path
    class="cls-2"
    d="M247.71,214.44c-.13-2.1-2.56-2.93-2.56-2.93s-58.21-17.49-62.23-18.9-6.32,0-6.32,0-61.19,18.58-63.06,19a3.67,3.67,0,0,0-2.56,2v78.81c15,43.74,69.11,56.85,69.11,56.85,61.45-23,67.62-57.83,67.62-57.83S247.83,216.55,247.71,214.44ZM242,290.73c-.92,3.52-9.92,32.4-62.23,52.5-8.76-2.55-50.41-16.38-63.16-51.86V216.58c9-2.59,45.12-13.54,61.6-18.54a6,6,0,0,0,.88-.35,2.05,2.05,0,0,1,.36,0,4.67,4.67,0,0,1,1.56.31c3.78,1.31,51.78,15.75,61,18.53C242.12,225.26,242.08,264,242,290.73Z"
  />
    <path
    class="cls-2"
    d="M182.22,263.49s-.07-51.28,0-55.3-4.92-2.56-4.92-2.56-48.32,14.71-51,15.81-2.6,1.53-2.6,1.53v45.37c0,2,2.13,2.1,2.13,2.1h49.87v63.94c37.62-4.34,58.72-42.64,58.72-42.64V263.49Zm-6,.42H130.13V228.17l46.09-15.07ZM228.05,287s-2.17,21.62-45.15,40.09l-.55-56.47h45.7Z"
  />
    <path
    class="cls-3"
    d="M248,212.45c-.13-2.11-2.55-2.94-2.55-2.94S187.2,192,183.18,190.62s-6.32,0-6.32,0-61.19,18.57-63.06,19a3.67,3.67,0,0,0-2.55,1.95v78.81c15,43.75,69.1,56.85,69.1,56.85,61.45-23,67.62-57.83,67.62-57.83S248.1,214.55,248,212.45Zm-5.67,76.28c-.92,3.53-9.91,32.4-62.23,52.51-8.76-2.55-50.41-16.38-63.15-51.86v-74.8c9-2.58,45.11-13.53,61.59-18.54a5.56,5.56,0,0,0,.88-.35,2.32,2.32,0,0,1,.37,0,4.86,4.86,0,0,1,1.55.31c3.78,1.32,51.78,15.76,61,18.53C242.39,223.26,242.35,262,242.3,288.73Z"
  />
    <path
    class="cls-3"
    d="M182.48,261.49s-.06-51.28,0-55.3-4.91-2.55-4.91-2.55-48.32,14.7-51,15.81S124,221,124,221v45.36c0,2,2.13,2.11,2.13,2.11H176v63.93c37.62-4.34,58.73-42.63,58.73-42.63V261.49Zm-6,.43H130.39V226.17l46.09-15.06ZM228.31,285s-2.17,21.62-45.15,40.08l-.55-56.47h45.7Z"
  />
</svg>
