
<?xml version="1.0" encoding="utf-8"?>
<svg version="1.1" id="katman_1" xmlns="http://www.w3.org/2000/svg" xmlns:xlink="http://www.w3.org/1999/xlink" x="0px" y="0px"
	 viewBox="0 0 1024 576" style="enable-background:new 0 0 1024 576;" xml:space="preserve">
<style type="text/css">
	.st0{fill-rule:evenodd;clip-rule:evenodd;fill:#F97225;}
</style>
<g>
	<path class="st0" d="M279.31,274.48c-4.34,0-7.97,0.99-10.9,2.97c-2.94,1.98-5.33,4.53-7.17,7.65c-1.85,3.13-3.16,6.57-3.92,10.33
		c-0.76,3.76-1.15,7.49-1.15,11.19c0,3.57,0.38,7.21,1.15,10.91c0.77,3.7,2.01,7.05,3.73,10.04c1.72,3,4.05,5.45,6.98,7.36
		c2.93,1.91,6.51,2.87,10.71,2.87c6.5,0,11.51-1.82,15.02-5.45c3.51-3.64,5.71-8.51,6.6-14.64h26.21
		c-1.79,13.14-6.89,23.15-15.3,30.03c-8.42,6.89-19.2,10.33-32.33,10.33c-7.4,0-14.19-1.24-20.37-3.73
		c-6.19-2.49-11.45-5.96-15.78-10.43c-4.34-4.46-7.72-9.79-10.14-15.97c-2.42-6.18-3.63-12.98-3.63-20.37
		c0-7.65,1.11-14.76,3.35-21.33c2.23-6.57,5.52-12.24,9.85-17.03c4.33-4.78,9.63-8.51,15.88-11.19c6.25-2.68,13.39-4.02,21.43-4.02
		c5.86,0,11.51,0.77,16.93,2.3c5.42,1.53,10.26,3.86,14.54,6.98c4.27,3.13,7.75,7.01,10.43,11.67c2.68,4.66,4.21,10.17,4.59,16.55
		H299.4C297.61,280.15,290.92,274.48,279.31,274.48L279.31,274.48z"/>
	<path class="st0" d="M383.76,283.28c3.44,0,6.76-0.25,9.95-0.77c3.19-0.51,5.99-1.5,8.42-2.96c2.42-1.46,4.37-3.54,5.83-6.22
		c1.46-2.68,2.2-6.18,2.2-10.52c0-4.33-0.74-7.84-2.2-10.52c-1.47-2.68-3.41-4.75-5.83-6.22c-2.42-1.46-5.23-2.45-8.42-2.97
		c-3.19-0.51-6.5-0.77-9.95-0.77h-23.34v40.94H383.76L383.76,283.28z M391.99,219c8.54,0,15.81,1.24,21.81,3.73
		c5.99,2.49,10.87,5.77,14.64,9.85c3.76,4.08,6.5,8.74,8.22,13.96c1.72,5.23,2.58,10.65,2.58,16.26c0,5.48-0.86,10.87-2.58,16.17
		c-1.72,5.29-4.46,9.98-8.22,14.06c-3.76,4.08-8.64,7.36-14.64,9.85c-6,2.49-13.27,3.73-21.81,3.73h-31.56v48.97h-30.04V219H391.99
		L391.99,219z"/>
	<path class="st0" d="M495.77,309.58c-1.72,0.57-3.57,1.05-5.55,1.43c-1.98,0.38-4.05,0.7-6.22,0.96c-2.17,0.26-4.34,0.57-6.5,0.96
		c-2.04,0.38-4.05,0.89-6.02,1.53c-1.98,0.64-3.7,1.5-5.17,2.58c-1.47,1.09-2.65,2.46-3.54,4.11c-0.89,1.66-1.34,3.76-1.34,6.31
		c0,2.42,0.45,4.47,1.34,6.12c0.89,1.66,2.1,2.97,3.63,3.92c1.53,0.96,3.32,1.63,5.36,2.01c2.04,0.38,4.14,0.57,6.31,0.57
		c5.36,0,9.5-0.89,12.44-2.68c2.93-1.78,5.1-3.92,6.51-6.41c1.4-2.49,2.26-5,2.58-7.56c0.32-2.55,0.48-4.59,0.48-6.12v-10.14
		C498.93,308.21,497.49,309.01,495.77,309.58L495.77,309.58z M442.11,271.23c2.8-4.21,6.37-7.59,10.71-10.14
		c4.33-2.55,9.21-4.37,14.63-5.45c5.42-1.08,10.87-1.63,16.36-1.63c4.97,0,10.01,0.35,15.11,1.05c5.1,0.7,9.76,2.08,13.97,4.11
		c4.21,2.04,7.65,4.88,10.33,8.51c2.68,3.63,4.02,8.45,4.02,14.44l0,51.46c0,4.47,0.25,8.74,0.76,12.82
		c0.51,4.08,1.4,7.14,2.68,9.18h-27.55c-0.51-1.53-0.93-3.09-1.24-4.69c-0.32-1.59-0.54-3.22-0.67-4.88
		c-4.34,4.47-9.44,7.59-15.31,9.37c-5.87,1.78-11.86,2.68-17.98,2.68c-4.72,0-9.12-0.57-13.2-1.72c-4.08-1.15-7.65-2.93-10.71-5.36
		c-3.06-2.42-5.45-5.48-7.17-9.18c-1.72-3.7-2.58-8.1-2.58-13.2c0-5.61,0.99-10.23,2.96-13.87c1.98-3.63,4.53-6.53,7.65-8.7
		c3.12-2.17,6.69-3.79,10.71-4.88c4.02-1.08,8.06-1.94,12.15-2.58c4.08-0.64,8.1-1.15,12.05-1.53c3.95-0.38,7.46-0.96,10.52-1.72
		c3.06-0.77,5.48-1.88,7.27-3.35c1.78-1.46,2.61-3.6,2.49-6.41c0-2.93-0.48-5.26-1.43-6.98c-0.96-1.72-2.23-3.06-3.83-4.02
		c-1.6-0.96-3.44-1.59-5.55-1.91c-2.1-0.32-4.37-0.48-6.79-0.48c-5.36,0-9.57,1.15-12.63,3.44c-3.06,2.3-4.85,6.12-5.36,11.48
		h-27.16C437.71,280.73,439.3,275.43,442.11,271.23L442.11,271.23z"/>
	<path class="st0" d="M564.54,256.69v13.77h0.57c3.44-5.74,7.91-9.91,13.39-12.53c5.48-2.61,11.1-3.92,16.83-3.92
		c7.27,0,13.23,0.99,17.89,2.97c4.65,1.98,8.32,4.72,11,8.23c2.68,3.51,4.56,7.78,5.64,12.82c1.08,5.04,1.63,10.62,1.63,16.74v60.83
		h-27.17v-55.86c0-8.16-1.28-14.25-3.83-18.27c-2.55-4.02-7.08-6.03-13.58-6.03c-7.4,0-12.75,2.2-16.07,6.6
		c-3.32,4.4-4.97,11.64-4.97,21.71v51.84h-27.17v-98.9H564.54L564.54,256.69z"/>
	<path class="st0" d="M702.37,279.83c-3.25-3.57-8.2-5.36-14.83-5.36c-4.34,0-7.94,0.74-10.81,2.2c-2.87,1.47-5.16,3.28-6.89,5.45
		c-1.72,2.17-2.93,4.47-3.63,6.89c-0.7,2.43-1.12,4.59-1.24,6.51h44.19C707.89,288.63,705.63,283.41,702.37,279.83L702.37,279.83z
		 M671.67,331.87c4.08,3.95,9.95,5.93,17.6,5.93c5.48,0,10.2-1.37,14.16-4.11c3.95-2.74,6.38-5.64,7.27-8.7h23.91
		c-3.83,11.86-9.69,20.34-17.6,25.44c-7.91,5.1-17.47,7.65-28.7,7.65c-7.78,0-14.8-1.24-21.04-3.73
		c-6.25-2.49-11.54-6.02-15.88-10.62c-4.34-4.59-7.69-10.07-10.04-16.45c-2.36-6.38-3.54-13.39-3.54-21.04
		c0-7.4,1.21-14.28,3.64-20.66c2.42-6.38,5.86-11.89,10.33-16.55c4.46-4.65,9.79-8.32,15.97-11c6.19-2.68,13.04-4.02,20.57-4.02
		c8.42,0,15.75,1.63,22,4.88c6.25,3.25,11.38,7.62,15.4,13.1c4.02,5.49,6.92,11.74,8.71,18.75c1.78,7.02,2.42,14.35,1.91,22h-71.36
		C665.36,321.54,667.59,327.92,671.67,331.87L671.67,331.87z"/>
	<polygon class="st0" points="770.76,355.59 743.6,355.59 743.6,219 770.76,219 770.76,355.59 	"/>
	<path class="st0" d="M785.44,229.91c0.33,0,0.65-0.01,0.94-0.03c0.3-0.02,0.56-0.08,0.79-0.18c0.23-0.1,0.42-0.26,0.55-0.47
		c0.14-0.21,0.2-0.5,0.2-0.88c0-0.32-0.06-0.57-0.18-0.76c-0.12-0.19-0.28-0.33-0.48-0.43c-0.19-0.1-0.42-0.17-0.67-0.21
		c-0.25-0.04-0.5-0.05-0.75-0.05h-1.95v3.01H785.44L785.44,229.91z M786.09,225.71c1.13,0,1.96,0.22,2.5,0.67
		c0.54,0.45,0.81,1.13,0.81,2.04c0,0.85-0.24,1.48-0.71,1.87c-0.48,0.4-1.07,0.63-1.78,0.7l2.71,4.18h-1.58l-2.58-4.07h-1.56v4.07
		h-1.47v-9.46H786.09L786.09,225.71z M779.41,233.17c0.34,0.84,0.81,1.58,1.41,2.2c0.6,0.62,1.31,1.11,2.12,1.46
		c0.82,0.35,1.7,0.53,2.65,0.53c0.94,0,1.81-0.18,2.62-0.53c0.81-0.35,1.51-0.84,2.11-1.46c0.6-0.62,1.07-1.35,1.41-2.2
		c0.34-0.84,0.51-1.76,0.51-2.76c0-0.97-0.17-1.87-0.51-2.71c-0.34-0.84-0.81-1.56-1.41-2.18c-0.6-0.61-1.3-1.1-2.11-1.45
		c-0.81-0.35-1.68-0.53-2.62-0.53c-0.95,0-1.84,0.18-2.65,0.53c-0.82,0.35-1.52,0.84-2.12,1.45c-0.6,0.61-1.07,1.34-1.41,2.18
		c-0.34,0.84-0.51,1.74-0.51,2.71C778.9,231.4,779.07,232.32,779.41,233.17L779.41,233.17z M778.08,227.22
		c0.43-0.98,1.02-1.83,1.76-2.56c0.74-0.72,1.61-1.29,2.6-1.7c0.99-0.41,2.04-0.62,3.15-0.62c1.11,0,2.16,0.21,3.14,0.62
		c0.98,0.41,1.84,0.98,2.58,1.7c0.74,0.72,1.32,1.57,1.75,2.56c0.43,0.98,0.65,2.04,0.65,3.18c0,1.17-0.22,2.25-0.65,3.24
		c-0.43,0.99-1.02,1.85-1.75,2.58c-0.74,0.73-1.59,1.3-2.58,1.7c-0.98,0.4-2.03,0.61-3.14,0.61s-2.16-0.2-3.15-0.61
		c-0.99-0.4-1.86-0.97-2.6-1.7c-0.74-0.73-1.33-1.59-1.77-2.58c-0.43-0.99-0.65-2.07-0.65-3.24
		C777.43,229.27,777.64,228.21,778.08,227.22L778.08,227.22z"/>
	<path class="st0" d="M785.44,229.91c0.33,0,0.65-0.01,0.94-0.03c0.3-0.02,0.56-0.08,0.79-0.18c0.23-0.1,0.42-0.26,0.55-0.47
		c0.14-0.21,0.2-0.5,0.2-0.88c0-0.32-0.06-0.57-0.18-0.76c-0.12-0.19-0.28-0.33-0.48-0.43c-0.19-0.1-0.42-0.17-0.67-0.21
		c-0.25-0.04-0.5-0.05-0.75-0.05h-1.95v3.01H785.44L785.44,229.91z M786.09,225.71c1.13,0,1.96,0.22,2.5,0.67
		c0.54,0.45,0.81,1.13,0.81,2.04c0,0.85-0.24,1.48-0.71,1.87c-0.48,0.4-1.07,0.63-1.78,0.7l2.71,4.18h-1.58l-2.58-4.07h-1.56v4.07
		h-1.47v-9.46H786.09L786.09,225.71z M779.41,233.17c0.34,0.84,0.81,1.58,1.41,2.2c0.6,0.62,1.31,1.11,2.12,1.46
		c0.82,0.35,1.7,0.53,2.65,0.53c0.94,0,1.81-0.18,2.62-0.53c0.81-0.35,1.51-0.84,2.11-1.46c0.6-0.62,1.07-1.35,1.41-2.2
		c0.34-0.84,0.51-1.76,0.51-2.76c0-0.97-0.17-1.87-0.51-2.71c-0.34-0.84-0.81-1.56-1.41-2.18c-0.6-0.61-1.3-1.1-2.11-1.45
		c-0.81-0.35-1.68-0.53-2.62-0.53c-0.95,0-1.84,0.18-2.65,0.53c-0.82,0.35-1.52,0.84-2.12,1.45c-0.6,0.61-1.07,1.34-1.41,2.18
		c-0.34,0.84-0.51,1.74-0.51,2.71C778.9,231.4,779.07,232.32,779.41,233.17L779.41,233.17z M778.08,227.22
		c0.43-0.98,1.02-1.83,1.76-2.56c0.74-0.72,1.61-1.29,2.6-1.7c0.99-0.41,2.04-0.62,3.15-0.62c1.11,0,2.16,0.21,3.14,0.62
		c0.98,0.41,1.84,0.98,2.58,1.7c0.74,0.72,1.32,1.57,1.75,2.56c0.43,0.98,0.65,2.04,0.65,3.18c0,1.17-0.22,2.25-0.65,3.24
		c-0.43,0.99-1.02,1.85-1.75,2.58c-0.74,0.73-1.59,1.3-2.58,1.7c-0.98,0.4-2.03,0.61-3.14,0.61s-2.16-0.2-3.15-0.61
		c-0.99-0.4-1.86-0.97-2.6-1.7c-0.74-0.73-1.33-1.59-1.77-2.58c-0.43-0.99-0.65-2.07-0.65-3.24
		C777.43,229.27,777.64,228.21,778.08,227.22L778.08,227.22z"/>
</g>
</svg>
