<svg xmlns="http://www.w3.org/2000/svg" width="52" height="30" viewBox="0 0 52 30" fill="none">
<path d="M30.0624 9.71875H34.6936V14.5125H37.0499C38.1874 14.5125 39.2436 14.35 40.2999 13.9438C40.7874 13.7813 41.3561 13.5375 41.8436 13.2125C41.1936 12.3188 40.8686 11.2625 40.7061 10.2063C40.5436 8.74375 40.8686 6.875 41.8436 5.7375L42.3311 5.16875L42.8999 5.65625C44.3624 6.875 45.5811 8.5 45.8249 10.3688C47.6124 9.88125 49.6436 9.9625 51.2686 10.8563L51.9186 11.2625L51.5936 11.9125C50.2936 14.5125 47.5311 15.2438 44.8499 15.1625C40.7874 25.2375 32.0124 29.95 21.3686 29.95C15.8436 29.95 10.8061 27.9188 7.96238 23.0438C7.79988 22.7188 7.63738 22.3938 7.47488 22.15C6.49988 20.0375 6.17488 17.6813 6.41863 15.325L6.49988 14.4313H10.4811V9.6375H15.1124V5.00625H24.4561V0.375H30.0624V9.71875Z" fill="#394D54"/>
<mask id="mask0_181_25710" style="mask-type:alpha" maskUnits="userSpaceOnUse" x="7" y="0" width="44" height="30">
<path d="M15.5188 0.78125V10.125H11.05V14.8375H7.23126L7.15001 15.2438C6.90626 17.7625 7.39376 20.1188 8.36876 22.15L8.69376 22.8C8.93751 23.2063 9.18126 23.5313 9.42501 23.8563C9.66876 24.1813 9.75001 24.3438 9.91251 24.5875C12.5938 27.5938 16.6563 29.1375 21.2875 29.1375C31.6063 29.1375 40.3813 24.5875 44.2813 14.2688C47.0438 14.5125 49.6438 13.8625 50.8625 11.5063C48.9125 10.3688 46.475 10.775 45.0938 11.5063L48.8313 0.8625L34.2875 10.125H29.575V0.78125H15.5188Z" fill="#C4C4C4"/>
</mask>
<g mask="url(#mask0_181_25710)">
<path d="M25.2688 1.10617H29.3313V5.16867H25.2688V1.10617Z" fill="#20C2EF"/>
<path d="M25.7561 4.84367V1.51242V4.84367ZM26.3249 4.84367V1.51242V4.84367ZM26.9749 4.84367V1.51242V4.84367ZM27.5436 4.84367V1.51242V4.84367ZM28.1936 4.84367V1.51242V4.84367ZM28.7624 4.84367V1.51242V4.84367Z" fill="black"/>
<path d="M28.7624 4.84367V1.51242M25.7561 4.84367V1.51242V4.84367ZM26.3249 4.84367V1.51242V4.84367ZM26.9749 4.84367V1.51242V4.84367ZM27.5436 4.84367V1.51242V4.84367ZM28.1936 4.84367V1.51242V4.84367Z" stroke="#394D54" stroke-width="0.3914" stroke-miterlimit="1.0037"/>
<path d="M29.8999 5.16867H33.9624V1.10617H29.8999V5.16867Z" fill="#00ACD3"/>
<path d="M30.3875 1.51242V4.84367V1.51242ZM31.0374 1.51242V4.84367V1.51242ZM31.6062 1.51242V4.84367V1.51242ZM32.2562 1.51242V4.84367V1.51242ZM32.8249 1.51242V4.84367V1.51242ZM33.4749 1.51242V4.84367V1.51242Z" fill="black"/>
<path d="M33.4749 1.51242V4.84367M30.3875 1.51242V4.84367V1.51242ZM31.0374 1.51242V4.84367V1.51242ZM31.6062 1.51242V4.84367V1.51242ZM32.2562 1.51242V4.84367V1.51242ZM32.8249 1.51242V4.84367V1.51242Z" stroke="#394D54" stroke-width="0.3914" stroke-miterlimit="1.0037"/>
<path d="M6.5813 5.8186H10.6438V9.8811H6.5813V5.8186Z" fill="#00ACD3"/>
<path d="M6.5813 10.4499H10.6438V14.5124H6.5813V10.4499Z" fill="#20C2EF"/>
<path d="M7.0686 9.47487V6.14362V9.47487ZM7.7186 9.47487V6.14362V9.47487ZM8.28735 9.47487V6.14362V9.47487ZM8.93735 9.47487V6.14362V9.47487ZM9.5061 9.47487V6.14362V9.47487ZM10.1561 9.47487V6.14362V9.47487Z" fill="black"/>
<path d="M10.1561 9.47487V6.14362M7.0686 9.47487V6.14362V9.47487ZM7.7186 9.47487V6.14362V9.47487ZM8.28735 9.47487V6.14362V9.47487ZM8.93735 9.47487V6.14362V9.47487ZM9.5061 9.47487V6.14362V9.47487Z" stroke="#394D54" stroke-width="0.3914" stroke-miterlimit="1.0037"/>
<path d="M7.0686 14.1874V10.8562V14.1874ZM7.7186 14.1874V10.8562V14.1874ZM8.28735 14.1874V10.8562V14.1874ZM8.93735 14.1874V10.8562V14.1874ZM9.5061 14.1874V10.8562V14.1874ZM10.1561 14.1874V10.8562V14.1874Z" fill="black"/>
<path d="M10.1561 14.1874V10.8562M7.0686 14.1874V10.8562V14.1874ZM7.7186 14.1874V10.8562V14.1874ZM8.28735 14.1874V10.8562V14.1874ZM8.93735 14.1874V10.8562V14.1874ZM9.5061 14.1874V10.8562V14.1874Z" stroke="#394D54" stroke-width="0.3914" stroke-miterlimit="1.0037"/>
<path d="M11.2937 14.54H15.3562V10.4775H11.2937V14.54Z" fill="#00ACD3"/>
<path d="M11.2937 9.82751H15.3562V5.76501H11.2937V9.82751Z" fill="#20C2EF"/>
<path d="M11.7812 10.8025V14.1338V10.8025ZM12.35 10.8025V14.1338V10.8025ZM13 10.8025V14.1338V10.8025ZM13.5688 10.8025V14.1338V10.8025ZM14.2187 10.8025V14.1338V10.8025ZM14.7875 10.8025V14.1338V10.8025Z" fill="black"/>
<path d="M14.7875 10.8025V14.1338M11.7812 10.8025V14.1338V10.8025ZM12.35 10.8025V14.1338V10.8025ZM13 10.8025V14.1338V10.8025ZM13.5688 10.8025V14.1338V10.8025ZM14.2187 10.8025V14.1338V10.8025Z" stroke="#394D54" stroke-width="0.3914" stroke-miterlimit="1.0037"/>
<path d="M11.7812 6.17126V9.50252V6.17126ZM12.35 6.17126V9.50252V6.17126ZM13 6.17126V9.50252V6.17126ZM13.5688 6.17126V9.50252V6.17126ZM14.2187 6.17126V9.50252V6.17126ZM14.7875 6.17126V9.50252V6.17126Z" fill="black"/>
<path d="M14.7875 6.17126V9.50252M11.7812 6.17126V9.50252V6.17126ZM12.35 6.17126V9.50252V6.17126ZM13 6.17126V9.50252V6.17126ZM13.5688 6.17126V9.50252V6.17126ZM14.2187 6.17126V9.50252V6.17126Z" stroke="#394D54" stroke-width="0.3914" stroke-miterlimit="1.0037"/>
<path d="M15.925 5.8186H19.9875V9.8811H15.925V5.8186Z" fill="#00ACD3"/>
<path d="M15.925 10.4499H19.9875V14.5124H15.925V10.4499Z" fill="#20C2EF"/>
<path d="M16.4124 9.47487V6.14362V9.47487ZM17.0624 9.47487V6.14362V9.47487ZM17.6311 9.47487V6.14362V9.47487ZM18.2811 9.47487V6.14362V9.47487ZM18.8499 9.47487V6.14362V9.47487ZM19.4999 9.47487V6.14362V9.47487Z" fill="black"/>
<path d="M19.4999 9.47487V6.14362M16.4124 9.47487V6.14362V9.47487ZM17.0624 9.47487V6.14362V9.47487ZM17.6311 9.47487V6.14362V9.47487ZM18.2811 9.47487V6.14362V9.47487ZM18.8499 9.47487V6.14362V9.47487Z" stroke="#394D54" stroke-width="0.3914" stroke-miterlimit="1.0037"/>
<path d="M16.4124 14.1874V10.8562V14.1874ZM17.0624 14.1874V10.8562V14.1874ZM17.6311 14.1874V10.8562V14.1874ZM18.2811 14.1874V10.8562V14.1874ZM18.8499 14.1874V10.8562V14.1874ZM19.4999 14.1874V10.8562V14.1874Z" fill="black"/>
<path d="M19.4999 14.1874V10.8562M16.4124 14.1874V10.8562V14.1874ZM17.0624 14.1874V10.8562V14.1874ZM17.6311 14.1874V10.8562V14.1874ZM18.2811 14.1874V10.8562V14.1874ZM18.8499 14.1874V10.8562V14.1874Z" stroke="#394D54" stroke-width="0.3914" stroke-miterlimit="1.0037"/>
<path d="M20.5562 14.5124H24.6187V10.4499H20.5562V14.5124Z" fill="#00ACD3"/>
<path d="M20.5562 9.8811H24.6187V5.8186H20.5562V9.8811Z" fill="#20C2EF"/>
<path d="M21.125 10.7751V14.1064V10.7751ZM21.6938 10.7751V14.1064V10.7751ZM22.3438 10.7751V14.1064V10.7751ZM22.9125 10.7751V14.1064V10.7751ZM23.5625 10.7751V14.1064V10.7751ZM24.1313 10.7751V14.1064V10.7751Z" fill="black"/>
<path d="M24.1313 10.7751V14.1064M21.125 10.7751V14.1064V10.7751ZM21.6938 10.7751V14.1064V10.7751ZM22.3438 10.7751V14.1064V10.7751ZM22.9125 10.7751V14.1064V10.7751ZM23.5625 10.7751V14.1064V10.7751Z" stroke="#394D54" stroke-width="0.3914" stroke-miterlimit="1.0037"/>
<path d="M21.125 6.14362V9.47487V6.14362ZM21.6938 6.14362V9.47487V6.14362ZM22.3438 6.14362V9.47487V6.14362ZM22.9125 6.14362V9.47487V6.14362ZM23.5625 6.14362V9.47487V6.14362ZM24.1313 6.14362V9.47487V6.14362Z" fill="black"/>
<path d="M24.1313 6.14362V9.47487M21.125 6.14362V9.47487V6.14362ZM21.6938 6.14362V9.47487V6.14362ZM22.3438 6.14362V9.47487V6.14362ZM22.9125 6.14362V9.47487V6.14362ZM23.5625 6.14362V9.47487V6.14362Z" stroke="#394D54" stroke-width="0.3914" stroke-miterlimit="1.0037"/>
<path d="M25.2688 5.8186H29.3313V9.8811H25.2688V5.8186Z" fill="#00ACD3"/>
<path d="M25.2688 10.4499H29.3313V14.5124H25.2688V10.4499Z" fill="#20C2EF"/>
<path d="M25.7561 9.47487V6.14362V9.47487ZM26.3249 9.47487V6.14362V9.47487ZM26.9749 9.47487V6.14362V9.47487ZM27.5436 9.47487V6.14362V9.47487ZM28.1936 9.47487V6.14362V9.47487ZM28.7624 9.47487V6.14362V9.47487Z" fill="black"/>
<path d="M28.7624 9.47487V6.14362M25.7561 9.47487V6.14362V9.47487ZM26.3249 9.47487V6.14362V9.47487ZM26.9749 9.47487V6.14362V9.47487ZM27.5436 9.47487V6.14362V9.47487ZM28.1936 9.47487V6.14362V9.47487Z" stroke="#394D54" stroke-width="0.3914" stroke-miterlimit="1.0037"/>
<path d="M25.7561 14.1874V10.8562V14.1874ZM26.3249 14.1874V10.8562V14.1874ZM26.9749 14.1874V10.8562V14.1874ZM27.5436 14.1874V10.8562V14.1874ZM28.1936 14.1874V10.8562V14.1874ZM28.7624 14.1874V10.8562V14.1874Z" fill="black"/>
<path d="M28.7624 14.1874V10.8562M25.7561 14.1874V10.8562V14.1874ZM26.3249 14.1874V10.8562V14.1874ZM26.9749 14.1874V10.8562V14.1874ZM27.5436 14.1874V10.8562V14.1874ZM28.1936 14.1874V10.8562V14.1874Z" stroke="#394D54" stroke-width="0.3914" stroke-miterlimit="1.0037"/>
<path d="M29.8999 14.54H33.9624V10.4775H29.8999V14.54Z" fill="#00ACD3"/>
<path d="M29.8999 9.82751H33.9624V5.76501H29.8999V9.82751Z" fill="#20C2EF"/>
<path d="M30.3875 10.8025V14.1338V10.8025ZM31.0375 10.8025V14.1338V10.8025ZM31.6062 10.8025V14.1338V10.8025ZM32.2562 10.8025V14.1338V10.8025ZM32.825 10.8025V14.1338V10.8025ZM33.475 10.8025V14.1338V10.8025Z" fill="black"/>
<path d="M33.475 10.8025V14.1338M30.3875 10.8025V14.1338V10.8025ZM31.0375 10.8025V14.1338V10.8025ZM31.6062 10.8025V14.1338V10.8025ZM32.2562 10.8025V14.1338V10.8025ZM32.825 10.8025V14.1338V10.8025Z" stroke="#394D54" stroke-width="0.3914" stroke-miterlimit="1.0037"/>
<path d="M30.3875 6.17126V9.50252V6.17126ZM31.0375 6.17126V9.50252V6.17126ZM31.6062 6.17126V9.50252V6.17126ZM32.2562 6.17126V9.50252V6.17126ZM32.825 6.17126V9.50252V6.17126ZM33.475 6.17126V9.50252V6.17126Z" fill="black"/>
<path d="M33.475 6.17126V9.50252M30.3875 6.17126V9.50252V6.17126ZM31.0375 6.17126V9.50252V6.17126ZM31.6062 6.17126V9.50252V6.17126ZM32.2562 6.17126V9.50252V6.17126ZM32.825 6.17126V9.50252V6.17126Z" stroke="#394D54" stroke-width="0.3914" stroke-miterlimit="1.0037"/>
<path d="M45.1749 11.4249C45.4999 8.98737 43.6312 7.11862 42.5749 6.14362C41.2749 7.60612 41.1124 11.5874 43.1437 13.2124C42.0062 14.1874 39.5687 15.1624 37.1312 15.1624H6.90618C6.66243 17.7624 6.90618 30.0311 6.90618 30.0311H51.1874L51.0249 11.4249C49.0749 10.3686 46.5562 10.7749 45.1749 11.4249Z" fill="#17B5EB"/>
<path d="M6.90625 18.4939V30.1126H51.1875V18.4939" fill="black" fill-opacity="0.17"/>
<path d="M22.6687 29.0561C19.9062 27.7561 18.3624 25.9686 17.5499 24.0186L9.18115 24.4249L13.4874 30.1124L22.6687 29.0561Z" fill="#D4EDF1"/>
<path d="M45.3375 11.3438C41.1125 16.8688 35.0188 21.6625 28.4375 24.1813C22.5875 26.4563 17.4688 26.4563 13.975 24.6688C13.5688 24.425 13.2438 24.1813 12.8375 24.0188C10.2375 22.2313 8.775 19.225 8.9375 15.325H6.90625V30.1938H51.1875V10.5312H46.0688L45.3375 11.3438Z" fill="black" fill-opacity="0.085"/>
<path d="M9.26245 24.1813C12.1875 24.3438 15.1937 24.3438 17.9562 23.5312" stroke="#394D54" stroke-width="0.8534" stroke-miterlimit="5.4354" stroke-linecap="round"/>
<path d="M20.7999 22.1499C20.7999 22.7999 20.3124 23.2874 19.6624 23.2874C19.0124 23.2874 18.5249 22.7999 18.5249 22.1499C18.5249 21.4999 19.0124 21.0124 19.6624 21.0124C20.3124 21.0937 20.7999 21.5812 20.7999 22.1499Z" fill="#D4EDF1"/>
</g>
<path d="M19.9875 21.4187C19.9062 21.5 19.825 21.5812 19.825 21.6625C19.825 21.825 19.9875 21.9875 20.15 21.9875C20.3125 21.9875 20.3938 21.9062 20.475 21.825C20.475 21.9062 20.5562 21.9875 20.5562 22.15C20.5562 22.5562 20.2312 22.9625 19.7437 22.9625C19.3375 22.9625 18.9312 22.6375 18.9312 22.15C18.9312 21.6625 19.2562 21.3375 19.7437 21.3375C19.825 21.3375 19.9062 21.4187 19.9875 21.4187ZM0 18.7375H51.8375C50.7 18.4125 48.2625 18.0875 48.6688 16.625C46.6375 18.9812 41.6813 18.25 40.3813 17.1125C39 19.0625 30.9563 18.3312 30.3875 16.7875C28.6813 18.8187 23.2375 18.8187 21.5312 16.7875C20.9625 18.3312 12.8375 19.1437 11.4563 17.1125C10.1562 18.25 5.28125 18.9812 3.16875 16.625C3.575 18.0875 1.1375 18.4937 0 18.7375Z" fill="#394D54"/>
<div xmlns="" id="divScriptsUsed" style="display: none"/><script xmlns="" id="globalVarsDetection" src="chrome-extension://cmkdbmfndkfgebldhnkbfhlneefdaaip/js/wrs_env.js"/></svg>