<svg xmlns="http://www.w3.org/2000/svg" width="52" height="52" viewBox="0 0 52 52" fill="none">
<path fill-rule="evenodd" clip-rule="evenodd" d="M26 52C40.3594 52 52 40.3594 52 26C52 11.6406 40.3594 0 26 0C11.6406 0 0 11.6406 0 26C0 40.3594 11.6406 52 26 52ZM13.5981 13.2889H10.4V28.8889H13.8666V18.7046L20.4864 28.8889H23.6889V13.2889H20.8V24.0917L13.5981 13.2889ZM34.0889 13.2889H26V28.8889H34.0889V26H28.8889V22.5334H34.0889V19.6445H28.8889V16.1778H34.0889V13.2889ZM46.2222 13.2889H35.2444V16.1778H39.2889V28.8889H42.1777V16.1778H46.2222V13.2889ZM6.9333 26C5.976 26 5.19997 26.7761 5.19997 27.7334C5.19997 28.6906 5.976 29.4667 6.9333 29.4667C7.89059 29.4667 8.66663 28.6906 8.66663 27.7334C8.66663 26.7761 7.89059 26 6.9333 26ZM22.1831 31.8245C21.372 31.4769 20.0583 31.3855 18.9265 31.8327C18.3474 32.0615 17.7969 32.439 17.3929 33.015C16.9873 33.5934 16.7555 34.3344 16.7555 35.2445C16.7555 36.299 17.2818 37.3541 18.2509 37.9708C19.2339 38.5964 20.5912 38.7236 22.1701 38.092L21.7409 37.0191C20.4309 37.5431 19.4771 37.3814 18.8713 36.9959C18.2515 36.6015 17.9111 35.9232 17.9111 35.2445C17.9111 34.5367 18.0886 34.0356 18.339 33.6786C18.591 33.3193 18.9433 33.0685 19.3512 32.9074C20.1935 32.5746 21.1909 32.6565 21.7279 32.8866L22.1831 31.8245ZM23.6889 35.8222C23.6889 35.3366 23.8908 34.8552 24.2112 34.5188C24.5275 34.1868 24.9272 34.0241 25.3405 34.0831C26.0772 34.1883 26.5777 34.8733 26.5777 35.8222C26.5777 36.7712 26.0772 37.4561 25.3405 37.5614C24.9272 37.6204 24.5275 37.4577 24.2112 37.1257C23.8908 36.7892 23.6889 36.3079 23.6889 35.8222ZM25.5039 32.9392C24.6536 32.8177 23.8978 33.1724 23.3744 33.7219C22.8552 34.267 22.5333 35.0315 22.5333 35.8222C22.5333 36.613 22.8552 37.3774 23.3744 37.9226C23.8978 38.4721 24.6536 38.8268 25.5039 38.7053C27.0009 38.4915 27.7333 37.1296 27.7333 35.8222C27.7333 34.5149 27.0009 33.153 25.5039 32.9392ZM34.0889 32.9334C33.4188 32.9334 32.7794 33.1036 32.3377 33.6558C31.9317 34.1632 31.7838 34.887 31.7779 35.7674C31.6761 36.341 31.7087 37.1928 32.2312 37.8664C32.8079 38.6098 33.8313 38.9546 35.3394 38.7033L35.1494 37.5634C33.8842 37.7743 33.3668 37.445 33.1443 37.1581C32.9814 36.9482 32.9046 36.6727 32.8896 36.4H35.8222L35.8222 35.7966C35.8223 35.4231 35.8224 34.7754 35.6534 34.2118C35.5652 33.9177 35.4177 33.5981 35.1577 33.3477C34.8831 33.0833 34.521 32.9334 34.0889 32.9334ZM34.6543 35.2445H32.9615C33.0112 34.789 33.1202 34.5274 33.24 34.3776C33.3761 34.2075 33.6033 34.0889 34.0889 34.0889C34.2345 34.0889 34.3057 34.1315 34.3561 34.1801C34.4212 34.2427 34.4903 34.3564 34.5466 34.5438C34.6103 34.7565 34.6403 35.0008 34.6543 35.2445ZM28.3111 33.5111H29.2152C29.4611 33.3535 29.7337 33.2456 30.0199 33.2118C30.3733 33.17 30.7423 33.2448 31.0645 33.4787C31.3803 33.7079 31.6055 34.0561 31.7481 34.484L30.6518 34.8494C30.5633 34.5839 30.4563 34.4651 30.3857 34.4139C30.3216 34.3673 30.2499 34.3482 30.1556 34.3594C29.9608 34.3824 29.6844 34.5426 29.4666 34.8399V38.1334H28.3111V33.5111Z" fill="#6D429C"/>
<div xmlns="" id="divScriptsUsed" style="display: none"/><script xmlns="" id="globalVarsDetection" src="chrome-extension://cmkdbmfndkfgebldhnkbfhlneefdaaip/js/wrs_env.js"/></svg>