<svg xmlns="http://www.w3.org/2000/svg" width="52" height="52" viewBox="0 0 52 52" fill="none">
<g clip-path="url(#clip0_181_26343)">
<path d="M25.8374 0.773496C25.3724 0.800815 24.9176 0.921282 24.5001 1.12775L6.38943 9.76625C5.44368 10.2164 4.75631 11.0727 4.52068 12.0932L0.0876807 31.4811C-0.123569 32.3911 0.0470557 33.345 0.575181 34.125C0.636931 34.2192 0.701931 34.3102 0.770181 34.398L13.2827 49.9557C13.9441 50.7682 14.9369 51.2346 15.9834 51.2297H36.0522C37.1019 51.2314 38.0964 50.7422 38.7562 49.9411L51.2622 34.3801C51.9187 33.5676 52.1641 32.4951 51.9122 31.4779L47.4499 12.0737C47.2143 11.0532 46.5237 10.1969 45.5812 9.74675L27.4998 1.12937C26.9788 0.872391 26.4017 0.750042 25.8212 0.773496H25.8374Z" fill="#326CE5"/>
<path d="M26.0031 7.38104C25.3791 7.42492 24.9063 7.95954 24.9388 8.58354V8.88904C24.968 9.23517 25.02 9.57804 25.0883 9.91767C25.1879 10.568 25.2239 11.2266 25.1955 11.8839C25.1338 12.1 25.0103 12.295 24.8413 12.4445L24.8169 12.9028C24.1588 12.958 23.5055 13.0588 22.862 13.205C20.1548 13.816 17.6896 15.22 15.7868 17.2432L15.3968 16.9669C15.1823 17.0319 14.9515 17.0075 14.7549 16.9019C14.2274 16.5115 13.7393 16.0707 13.2973 15.5857C13.0753 15.3204 12.8382 15.0681 12.5871 14.83L12.3466 14.6383C12.1321 14.466 11.8689 14.3669 11.5943 14.3539C11.4304 14.3452 11.2668 14.3754 11.1168 14.4421C10.9668 14.5087 10.8348 14.6099 10.7314 14.7374C10.3641 15.2525 10.4844 15.9659 10.9979 16.3348L11.2221 16.5135C11.5108 16.7056 11.8103 16.8808 12.1191 17.0384C12.6944 17.3585 13.2371 17.7339 13.7409 18.1759C13.8698 18.3597 13.9446 18.5758 13.957 18.7999L14.3113 19.1249C12.3986 21.9947 11.6138 25.4705 12.1045 28.8847L11.6495 29.0147C11.5309 29.2032 11.3733 29.364 11.1848 29.4827C10.55 29.6522 9.90014 29.7594 9.24452 29.8028C8.89658 29.8099 8.54934 29.837 8.20452 29.884L7.9169 29.949H7.8844C7.6848 29.9767 7.4968 30.0593 7.34133 30.1875C7.18587 30.3157 7.06904 30.4846 7.00385 30.6753C6.93867 30.8659 6.92768 31.071 6.97211 31.2675C7.01654 31.4641 7.11465 31.6444 7.25552 31.7885C7.39771 31.9319 7.57696 32.0329 7.77324 32.0803C7.96953 32.1276 8.17511 32.1194 8.36702 32.0567H8.38815L8.68065 32.0242C9.01052 31.9267 9.33552 31.8064 9.6524 31.6699C10.2618 31.4262 10.8939 31.2393 11.5406 31.1174C11.7649 31.1304 11.9794 31.2068 12.1614 31.3368L12.6489 31.2555C13.7051 34.5332 15.9249 37.3103 18.8889 39.0604L18.6906 39.4748C18.7816 39.6649 18.8158 39.8762 18.7881 40.0858C18.52 40.7065 18.1918 41.3013 17.8083 41.8603C17.5979 42.1376 17.4037 42.4268 17.2265 42.7264L17.0884 43.0189C16.9882 43.1928 16.938 43.3909 16.9433 43.5915C16.9486 43.7921 17.0092 43.9873 17.1185 44.1556C17.2278 44.3239 17.3815 44.4587 17.5625 44.5452C17.7436 44.6316 17.9451 44.6664 18.1446 44.6455C18.3447 44.623 18.5346 44.5455 18.6932 44.4216C18.8519 44.2977 18.973 44.1322 19.0433 43.9435L19.1781 43.6673C19.3016 43.3423 19.4056 43.0108 19.4901 42.676C19.7778 41.9659 19.9338 41.2038 20.327 40.7325C20.4556 40.6117 20.6175 40.5324 20.7918 40.505L21.0355 40.0614C24.2485 41.2964 27.8038 41.3051 31.0228 40.0858L31.2389 40.5002C31.4599 40.5327 31.6581 40.6545 31.7914 40.8333C32.0969 41.415 32.3439 42.0244 32.5324 42.6533C32.6183 42.99 32.7236 43.3215 32.8476 43.6462L32.9825 43.9224C33.0535 44.1103 33.175 44.275 33.3337 44.3981C33.4924 44.5213 33.682 44.5981 33.8817 44.6201C34.0814 44.6422 34.2832 44.6085 34.465 44.523C34.6467 44.4374 34.8012 44.3032 34.9114 44.1353C35.0205 43.9663 35.0807 43.7705 35.0853 43.5694C35.0899 43.3683 35.0387 43.1699 34.9374 42.9962L34.796 42.7037C34.6189 42.4051 34.4246 42.117 34.2143 41.8408C33.8405 41.3013 33.5188 40.726 33.2393 40.1232C33.2132 40.0129 33.2095 39.8986 33.2285 39.7869C33.2475 39.6753 33.2887 39.5686 33.3498 39.4732C33.2804 39.3314 33.2202 39.1854 33.1694 39.036C36.1269 37.2729 38.3369 34.486 39.3818 31.2035L39.8433 31.2848C40.009 31.1337 40.2268 31.054 40.4494 31.0605C41.0945 31.184 41.7267 31.3855 42.3377 31.613C42.6545 31.7593 42.9795 31.8828 43.3094 31.9868C43.3874 32.0079 43.5011 32.0258 43.5889 32.0469H43.61C43.8018 32.1089 44.007 32.1163 44.2029 32.0685C44.3987 32.0207 44.5773 31.9195 44.719 31.7762C44.8607 31.6328 44.9598 31.4529 45.0053 31.2566C45.0508 31.0602 45.0409 30.8551 44.9766 30.664C44.911 30.4732 44.7935 30.3043 44.6374 30.1763C44.4813 30.0483 44.2927 29.9663 44.0926 29.9393L43.7774 29.8645C43.4326 29.8175 43.0853 29.7904 42.7374 29.7833C42.0809 29.741 41.4309 29.6338 40.7971 29.4632C40.6021 29.3543 40.4396 29.1918 40.3291 28.9952L39.8904 28.8652C40.3582 25.4527 39.5567 21.9872 37.6381 19.1265L38.0216 18.7723C38.0054 18.5497 38.0785 18.3287 38.2231 18.158C38.722 17.729 39.2631 17.3504 39.8319 17.027C40.1407 16.8694 40.4402 16.6942 40.7289 16.5022L40.9661 16.3104C41.1408 16.202 41.2812 16.0463 41.3711 15.8614C41.461 15.6765 41.4967 15.47 41.4741 15.2656C41.4515 15.0613 41.3715 14.8675 41.2434 14.7067C41.1152 14.546 40.9442 14.4248 40.75 14.3572C40.556 14.2896 40.3469 14.2784 40.1467 14.3247C39.9466 14.371 39.7637 14.4729 39.619 14.6188L39.3785 14.8105C39.1276 15.0486 38.8905 15.3009 38.6684 15.5662C38.2394 16.0569 37.7649 16.5038 37.2498 16.9035C37.0419 16.9882 36.8145 17.0129 36.5933 16.975L36.1821 17.2675C33.8096 14.7813 30.6133 13.2375 27.1878 12.9288C27.1878 12.7663 27.1666 12.5225 27.1634 12.4462C26.9798 12.3194 26.8514 12.126 26.8091 11.9067C26.7866 11.2504 26.828 10.5935 26.9326 9.94529C27.0025 9.60404 27.0513 9.26279 27.0821 8.91667V8.59167C27.1146 7.96767 26.6434 7.43304 26.0178 7.38917L26.0031 7.38104ZM24.6479 15.7758L24.3229 21.4519H24.2985C24.2823 21.8029 24.0759 22.1019 23.759 22.2709C23.4421 22.4399 23.0668 22.3895 22.784 22.1832L18.1284 18.8844C19.6102 17.4289 21.4692 16.4164 23.4958 15.961C23.876 15.8798 24.2595 15.818 24.6446 15.7758H24.6479ZM27.3584 15.7758C29.804 16.0797 32.0806 17.1782 33.8421 18.9023L29.2304 22.1799C28.946 22.4074 28.556 22.4529 28.2261 22.2969C27.8963 22.1409 27.685 21.8094 27.6801 21.4454L27.3584 15.7758ZM16.4384 21.0197L20.6959 24.8189V24.8433C20.9608 25.074 21.0761 25.4332 20.9981 25.776C20.9201 26.1189 20.6569 26.3903 20.3205 26.4829V26.4992L14.8573 28.0705C14.5869 25.6092 15.1438 23.1278 16.44 21.018L16.4384 21.0197ZM35.537 21.0197C36.8305 23.124 37.4025 25.5924 37.1653 28.051L31.6939 26.4748V26.4537C31.3526 26.361 31.0926 26.0897 31.0163 25.7468C30.9399 25.4039 31.0536 25.048 31.3185 24.814L35.5435 21.0327L35.537 21.0197ZM25.1305 25.1147H26.8725L27.9369 26.4667L27.5501 28.1567L25.9853 28.909L24.4171 28.1567L24.0483 26.4667L25.1305 25.1147ZM30.7108 29.7264C30.7839 29.7183 30.8733 29.7183 30.9301 29.7264L36.564 30.677C35.7515 33.017 34.1476 35.0158 32.0546 36.3532L29.8771 31.0817C29.8173 30.9402 29.7923 30.7865 29.8042 30.6334C29.8161 30.4803 29.8647 30.3323 29.9457 30.2018C30.0268 30.0714 30.138 29.9623 30.27 29.8839C30.402 29.8054 30.551 29.7597 30.7043 29.7508L30.7108 29.7264ZM21.2484 29.7508C21.5669 29.7557 21.861 29.9198 22.0349 30.1863C22.2088 30.4528 22.2364 30.7875 22.1113 31.08V31.1012L19.9468 36.3304C17.8749 35.0028 16.3019 33.0284 15.465 30.7128L21.0501 29.7654C21.1119 29.7589 21.1753 29.7589 21.2386 29.7654L21.2484 29.7508ZM25.9674 32.0258C26.1449 32.0202 26.3205 32.064 26.4746 32.1524C26.6287 32.2408 26.7552 32.3702 26.84 32.5263H26.8611L29.6139 37.4939L28.5138 37.8189C26.489 38.282 24.3749 38.1732 22.407 37.5037L25.1695 32.536C25.3369 32.2435 25.6456 32.0648 25.982 32.0567L25.9674 32.0258Z" fill="white" stroke="white" stroke-width="0.11"/>
</g>
<defs>
<clipPath id="clip0_181_26343">
<rect width="52" height="52" fill="white"/>
</clipPath>
</defs>
<div xmlns="" id="divScriptsUsed" style="display: none"/><script xmlns="" id="globalVarsDetection" src="chrome-extension://cmkdbmfndkfgebldhnkbfhlneefdaaip/js/wrs_env.js"/></svg>