<svg xmlns="http://www.w3.org/2000/svg" xmlns:xlink="http://www.w3.org/1999/xlink" version="1.1" id="Layer_1" x="0px" y="0px" viewBox="0 0 500 100" style="enable-background:new 0 0 500 100;" xml:space="preserve">
<style type="text/css">
	.st0{fill:#EA4335;}
	.st1{fill:#FBBC05;}
	.st2{fill:#4285F4;}
	.st3{fill:#34A853;}
</style>
<path class="st0" d="M231.2,54.6c0,12.7-9.9,22-22,22s-22-9.3-22-22c0-12.7,9.9-22,22-22S231.2,41.9,231.2,54.6z M221.5,54.6  c0-7.9-5.7-13.3-12.4-13.3s-12.4,5.4-12.4,13.3c0,7.8,5.7,13.3,12.4,13.3S221.5,62.4,221.5,54.6z"/>
<path class="st1" d="M278.7,54.6c0,12.7-9.9,22-22,22c-12.1,0-22-9.3-22-22c0-12.7,9.9-22,22-22C268.8,32.6,278.7,41.9,278.7,54.6z   M269.1,54.6c0-7.9-5.7-13.3-12.4-13.3c-6.7,0-12.4,5.4-12.4,13.3c0,7.8,5.7,13.3,12.4,13.3C263.4,67.9,269.1,62.4,269.1,54.6z"/>
<path class="st2" d="M324.3,34v39.5c0,16.2-9.6,22.9-20.9,22.9c-10.7,0-17.1-7.1-19.5-13l8.4-3.5c1.5,3.6,5.2,7.8,11.1,7.8  c7.2,0,11.7-4.5,11.7-12.9v-3.2h-0.3c-2.2,2.7-6.3,5-11.6,5c-11,0-21.1-9.6-21.1-21.9c0-12.4,10.1-22.1,21.1-22.1  c5.2,0,9.4,2.3,11.6,4.9h0.3V34L324.3,34L324.3,34z M315.8,54.7c0-7.7-5.2-13.4-11.7-13.4c-6.7,0-12.2,5.7-12.2,13.4  c0,7.7,5.6,13.2,12.2,13.2C310.7,67.9,315.8,62.4,315.8,54.7z"/>
<path class="st3" d="M339.4,10.8v64.4H330V10.8H339.4z"/>
<path class="st0" d="M376.1,61.9l7.5,5c-2.4,3.6-8.2,9.7-18.3,9.7c-12.5,0-21.8-9.7-21.8-22c0-13.1,9.4-22,20.7-22  c11.4,0,17,9.1,18.8,14l1,2.5l-29.4,12.2c2.2,4.4,5.7,6.7,10.7,6.7C370.2,67.9,373.6,65.5,376.1,61.9L376.1,61.9z M353.1,54  l19.6-8.2c-1.1-2.7-4.3-4.7-8.2-4.7C359.6,41.1,352.8,45.5,353.1,54z"/>
<path class="st2" d="M151.5,48.9v-9.3h31.4c0.3,1.6,0.5,3.5,0.5,5.6c0,7-1.9,15.6-8.1,21.8c-6,6.2-13.7,9.6-23.8,9.6  c-18.8,0-34.6-15.3-34.6-34.1s15.8-34.1,34.6-34.1c10.4,0,17.8,4.1,23.4,9.4l-6.6,6.6c-4-3.7-9.4-6.7-16.8-6.7  c-13.7,0-24.5,11.1-24.5,24.8s10.7,24.8,24.5,24.8c8.9,0,14-3.6,17.2-6.8c2.6-2.6,4.4-6.4,5.1-11.5L151.5,48.9z"/>
<div xmlns="" id="divScriptsUsed" style="display: none"/><script xmlns="" id="globalVarsDetection" src="chrome-extension://cmkdbmfndkfgebldhnkbfhlneefdaaip/js/wrs_env.js"/></svg>