<svg xmlns="http://www.w3.org/2000/svg" xmlns:xlink="http://www.w3.org/1999/xlink" version="1.1" id="Layer_1" x="0px" y="0px" viewBox="0 0 500 100" style="enable-background:new 0 0 500 100;" xml:space="preserve">
<style type="text/css">
	.st0{fill:#0F0F0F;}
</style>
<path class="st0" d="M278.9,41.3L278.9,41.3c-0.2,0-0.3,0.1-0.5,0.1s-0.3,0-0.5,0c-9.5,0-15.3,5.9-15.3,15.4v4.7  c0,9.1,5.9,14.8,15.4,14.8c0.2,0,0.4,0,0.6,0c0.1,0,0.2,0,0.4,0c6.4,0,10.8-2.3,13.7-7.1l-5.6-3.3c-1.9,2.8-4.4,4.9-8,4.9  c-4.8,0-7.7-3-7.7-8v-1.3h22.3v-5.5C293.7,47,287.9,41.3,278.9,41.3L278.9,41.3z M278.4,46.8c4.4,0.2,7,3.1,7,7.9V56h-14.1v-0.8  C271.3,49.9,273.9,47,278.4,46.8L278.4,46.8z M243.7,41.4c-4.2,0-7.8,1.7-9.7,4.7l-0.5,0.7v-4.6h-8v44.7h8.4V71.2l0.5,0.7  c1.8,2.7,5.3,4.3,9.4,4.3h0.2h0.2c6.9,0,13.9-4.5,13.9-14.6V56c0-7.3-4.3-14.6-13.9-14.6l-0.1,0h-0.2L243.7,41.4z M241.8,47.7  c4.9,0.1,7.9,3.4,7.9,8.7v4.9c0,5.3-3,8.6-8,8.7c-4.6-0.1-7.8-3.6-7.8-8.6v-5C233.9,51.3,237.1,47.8,241.8,47.7L241.8,47.7z   M350.5,30.3l-16.2,45.1h9.1l3.1-9.7h17.6v0.1l3.1,9.6h9.1l-16.2-45.1h-1l0,0L350.5,30.3z M355.4,38.1l6.8,21.3h-13.6L355.4,38.1z   M408.9,36.7v-6.4h-27.7v6.4h9.7V69h-9.7v6.4h27.7V69h-9.7V36.7L408.9,36.7z M317.7,41.4h-0.2h-0.1c-4.7,0-8,1.6-9.7,4.6l-0.5,0.9  v-4.8h-8v33.3h8.4V55.6c0-4.7,2.5-7.3,6.9-7.4c4.2,0.1,6.5,2.7,6.5,7.2v20h8.4V54C329.4,46.1,325,41.4,317.7,41.4L317.7,41.4z   M198.5,29.4c-12.4,0-20.1,7.7-20.1,20.1v6.7c0,12.4,7.7,20.1,20.1,20.1h0.2h0.2c12.4,0,20.1-7.7,20.1-20.1v-6.7  c0-12.4-7.7-20.1-20.1-20.1h-0.2L198.5,29.4z M198.7,36.1c7.4,0.1,11.6,4.8,11.6,12.9v7.6c0,8.2-4.2,12.9-11.6,12.9  c-7.4-0.1-11.6-4.8-11.6-12.9v-7.6C187.1,40.9,191.4,36.2,198.7,36.1z M125.6,10.9c-8.6,0-16.2,5.5-18.8,13.6  c-5.5,1.1-10.2,4.6-13,9.5c-4.3,7.4-3.3,16.7,2.4,23.1c-1.8,5.3-1.2,11.1,1.7,16c4.3,7.4,12.8,11.3,21.2,9.5  c3.7,4.2,9.1,6.6,14.7,6.6c8.6,0,16.2-5.5,18.8-13.6c5.5-1.1,10.2-4.6,13-9.5c4.3-7.4,3.3-16.7-2.4-23.1v0c1.8-5.3,1.2-11.2-1.7-16  c-4.3-7.4-12.8-11.2-21.2-9.5C136.6,13.3,131.2,10.9,125.6,10.9z M125.6,16L125.6,16c3.4,0,6.7,1.2,9.4,3.4  c-0.1,0.1-0.3,0.2-0.5,0.3l-15.6,9c-0.8,0.5-1.3,1.3-1.3,2.2v21.1l-6.7-3.9V30.7C111,22.6,117.5,16,125.6,16L125.6,16z M144.4,22.1  c5.3,0,10.1,2.8,12.7,7.3c1.7,3,2.3,6.4,1.7,9.8c-0.1-0.1-0.3-0.2-0.5-0.3l-15.6-9c-0.8-0.5-1.8-0.5-2.6,0L122,40.5v-7.7l15.1-8.7  C139.3,22.8,141.8,22.1,144.4,22.1L144.4,22.1z M105.9,30.1v18.5c0,0.9,0.5,1.7,1.3,2.2l18.2,10.5l-6.7,3.9l-15-8.7  c-7-4.1-9.4-13-5.3-20C100,33.6,102.7,31.3,105.9,30.1L105.9,30.1z M140.8,34.7l15.1,8.7c7,4.1,9.4,13,5.3,20l0,0  c-1.7,3-4.4,5.2-7.6,6.4V51.3c0-0.9-0.5-1.8-1.3-2.2l-18.2-10.5L140.8,34.7z M129.7,41.1l7.7,4.4v8.9l-7.7,4.4l-7.7-4.4v-8.9  L129.7,41.1z M141.8,48.1l6.7,3.9v17.4c0,8.1-6.6,14.7-14.6,14.7v0c-3.4,0-6.8-1.2-9.4-3.4c0.1-0.1,0.3-0.2,0.5-0.3l15.6-9  c0.8-0.5,1.3-1.3,1.3-2.2L141.8,48.1z M137.4,59.5v7.7l-15.1,8.7c-7,4-16,1.6-20-5.3h0c-1.7-2.9-2.3-6.4-1.7-9.8  c0.1,0.1,0.3,0.2,0.5,0.3l15.6,9c0.8,0.5,1.8,0.5,2.6,0L137.4,59.5z"/>
<div xmlns="" id="divScriptsUsed" style="display: none"/><script xmlns="" id="globalVarsDetection" src="chrome-extension://cmkdbmfndkfgebldhnkbfhlneefdaaip/js/wrs_env.js"/></svg>